<svg width="48" height="48" viewBox="0 0 48 48" fill="none" xmlns="http://www.w3.org/2000/svg">
<g clip-path="url(#clip0_15_24)">
<circle cx="24" cy="24" r="23" fill="#EEEEEE" stroke="#111111" stroke-width="2"/>
<mask id="path-2-inside-1_15_24" fill="white">
<path fill-rule="evenodd" clip-rule="evenodd" d="M6 39.875V39C6 33.015 17.9925 30 24 30C30.0075 30 42 33.015 42 39V39.8749C41.3734 40.5849 40.7055 41.2574 40 41.8889V39C40 38.2383 39.6343 37.4231 38.6758 36.5385C37.7038 35.6414 36.2615 34.8142 34.5091 34.1122C31.0009 32.7068 26.7537 32 24 32C21.2463 32 16.9991 32.7068 13.4909 34.1122C11.7385 34.8142 10.2962 35.6414 9.32415 36.5385C8.36568 37.4231 8 38.2383 8 39V41.8889C7.2945 41.2574 6.62658 40.5849 6 39.875ZM17 19C17 15.1321 20.1321 12 24 12C27.8679 12 31 15.1321 31 19C31 22.8679 27.8679 26 24 26C20.1321 26 17 22.8679 17 19ZM15 19C15 14.0275 19.0275 10 24 10C28.9725 10 33 14.0275 33 19C33 23.9725 28.9725 28 24 28C19.0275 28 15 23.9725 15 19Z"/>
</mask>
<path fill-rule="evenodd" clip-rule="evenodd" d="M6 39.875V39C6 33.015 17.9925 30 24 30C30.0075 30 42 33.015 42 39V39.8749C41.3734 40.5849 40.7055 41.2574 40 41.8889V39C40 38.2383 39.6343 37.4231 38.6758 36.5385C37.7038 35.6414 36.2615 34.8142 34.5091 34.1122C31.0009 32.7068 26.7537 32 24 32C21.2463 32 16.9991 32.7068 13.4909 34.1122C11.7385 34.8142 10.2962 35.6414 9.32415 36.5385C8.36568 37.4231 8 38.2383 8 39V41.8889C7.2945 41.2574 6.62658 40.5849 6 39.875ZM17 19C17 15.1321 20.1321 12 24 12C27.8679 12 31 15.1321 31 19C31 22.8679 27.8679 26 24 26C20.1321 26 17 22.8679 17 19ZM15 19C15 14.0275 19.0275 10 24 10C28.9725 10 33 14.0275 33 19C33 23.9725 28.9725 28 24 28C19.0275 28 15 23.9725 15 19Z" fill="#EEEEEE"/>
<path d="M6 39.875H4V40.6313L4.50052 41.1984L6 39.875ZM42 39.8749L43.4995 41.1984L44 40.6313V39.8749H42ZM40 41.8889H38V46.363L41.3338 43.3791L40 41.8889ZM38.6758 36.5385L37.3194 38.0082L37.3194 38.0082L38.6758 36.5385ZM34.5091 34.1122L35.2528 32.2556L34.5091 34.1122ZM13.4909 34.1122L14.2347 35.9688L13.4909 34.1122ZM9.32415 36.5385L10.6806 38.0082L10.6806 38.0082L9.32415 36.5385ZM8 41.8889L6.66617 43.3791L10 46.363V41.8889H8ZM8 39.875V39H4V39.875H8ZM8 39C8 38.2383 8.36568 37.4231 9.32415 36.5385C10.2962 35.6414 11.7385 34.8142 13.4909 34.1122C16.9991 32.7068 21.2463 32 24 32V28C20.7462 28 15.9934 28.8007 12.0034 30.3991C10.0069 31.1989 8.07551 32.2477 6.61124 33.5991C5.13338 34.9631 4 36.7692 4 39H8ZM24 32C26.7537 32 31.0009 32.7068 34.5091 34.1122C36.2615 34.8142 37.7038 35.6414 38.6758 36.5385C39.6343 37.4231 40 38.2383 40 39H44C44 36.7692 42.8666 34.9631 41.3888 33.5991C39.9245 32.2477 37.9931 31.1989 35.9966 30.3991C32.0066 28.8007 27.2538 28 24 28V32ZM40 39V39.8749H44V39H40ZM40.5005 38.5515C39.9258 39.2026 39.3132 39.8194 38.6662 40.3986L41.3338 43.3791C42.0978 42.6954 42.821 41.9671 43.4995 41.1984L40.5005 38.5515ZM42 41.8889V39H38V41.8889H42ZM42 39C42 37.5089 41.2556 36.1979 40.0323 35.0688L37.3194 38.0082C37.6708 38.3326 37.8398 38.577 37.9198 38.7321C37.9932 38.8743 38 38.9558 38 39H42ZM40.0323 35.0688C38.8141 33.9445 37.1272 33.0065 35.2528 32.2556L33.7653 35.9688C35.3959 36.622 36.5935 37.3383 37.3194 38.0082L40.0323 35.0688ZM35.2528 32.2556C31.5038 30.7538 27.0038 30 24 30V34C26.5037 34 30.4981 34.6599 33.7653 35.9688L35.2528 32.2556ZM24 30C20.9962 30 16.4962 30.7538 12.7472 32.2556L14.2347 35.9688C17.5019 34.6599 21.4963 34 24 34V30ZM12.7472 32.2556C10.8728 33.0065 9.18594 33.9445 7.96769 35.0688L10.6806 38.0082C11.4065 37.3383 12.6041 36.622 14.2347 35.9688L12.7472 32.2556ZM7.9677 35.0688C6.74439 36.1979 6 37.5089 6 39H10C10 38.9558 10.0068 38.8743 10.0802 38.7321C10.1602 38.577 10.3292 38.3326 10.6806 38.0082L7.9677 35.0688ZM6 39V41.8889H10V39H6ZM9.33383 40.3986C8.68676 39.8195 8.07415 39.2026 7.49948 38.5515L4.50052 41.1984C5.17901 41.9671 5.90224 42.6954 6.66617 43.3791L9.33383 40.3986ZM24 10C19.0275 10 15 14.0275 15 19H19C19 16.2366 21.2366 14 24 14V10ZM33 19C33 14.0275 28.9725 10 24 10V14C26.7634 14 29 16.2366 29 19H33ZM24 28C28.9725 28 33 23.9725 33 19H29C29 21.7634 26.7634 24 24 24V28ZM15 19C15 23.9725 19.0275 28 24 28V24C21.2366 24 19 21.7634 19 19H15ZM24 8C17.9229 8 13 12.9229 13 19H17C17 15.1321 20.1321 12 24 12V8ZM35 19C35 12.9229 30.0771 8 24 8V12C27.8679 12 31 15.1321 31 19H35ZM24 30C30.0771 30 35 25.0771 35 19H31C31 22.8679 27.8679 26 24 26V30ZM13 19C13 25.0771 17.9229 30 24 30V26C20.1321 26 17 22.8679 17 19H13Z" fill="#111111" mask="url(#path-2-inside-1_15_24)"/>
</g>
<defs>
<clipPath id="clip0_15_24">
<rect width="48" height="48" fill="white"/>
</clipPath>
</defs>
</svg>
