<svg width="62" height="62" viewBox="0 0 62 62" fill="none" xmlns="http://www.w3.org/2000/svg">
<circle cx="31" cy="31" r="31" fill="white"/>
<g clip-path="url(#clip0_37_596)">
<path d="M52 31C52 19.402 42.598 10 31 10C19.402 10 10 19.402 10 31C10 41.4815 17.6794 50.1695 27.7188 51.7449V37.0703H22.3867V31H27.7188V26.3734C27.7188 21.1103 30.854 18.2031 35.6508 18.2031C37.9476 18.2031 40.3516 18.6133 40.3516 18.6133V23.7812H37.7036C35.095 23.7812 34.2812 25.4001 34.2812 27.0625V31H40.1055L39.1744 37.0703H34.2812V51.7449C44.3206 50.1695 52 41.4815 52 31Z" fill="#1877F2"/>
<path d="M39.1744 37.0703L40.1055 31H34.2812V27.0625C34.2812 25.4018 35.095 23.7812 37.7036 23.7812H40.3516V18.6133C40.3516 18.6133 37.9485 18.2031 35.6508 18.2031C30.854 18.2031 27.7188 21.1103 27.7188 26.3734V31H22.3867V37.0703H27.7188V51.7449C29.893 52.085 32.107 52.085 34.2812 51.7449V37.0703H39.1744Z" fill="white"/>
</g>
<defs>
<clipPath id="clip0_37_596">
<rect width="42" height="42" fill="white" transform="translate(10 10)"/>
</clipPath>
</defs>
</svg>
