<svg width="62" height="62" viewBox="0 0 62 62" fill="none" xmlns="http://www.w3.org/2000/svg">
<circle cx="31" cy="31" r="31" fill="white"/>
<g clip-path="url(#clip0_37_593)">
<path d="M51.5906 31.4837C51.5906 30.0562 51.4748 28.6209 51.2279 27.2166H31.42V35.3033H42.7631C42.2924 37.9114 40.78 40.2186 38.5654 41.6847V46.9318H45.3326C49.3065 43.2742 51.5906 37.8728 51.5906 31.4837Z" fill="#4285F4"/>
<path d="M31.4199 52.0014C37.0837 52.0014 41.8601 50.1418 45.3402 46.9318L38.573 41.6847C36.6902 42.9656 34.2595 43.691 31.4277 43.691C25.9491 43.691 21.3038 39.9948 19.6371 35.0255H12.6538V40.4347C16.2188 47.526 23.4798 52.0014 31.4199 52.0014Z" fill="#34A853"/>
<path d="M19.6295 35.0255C18.7498 32.4174 18.7498 29.5932 19.6295 26.9851V21.5759H12.6539C9.67542 27.5098 9.67542 34.5008 12.6539 40.4346L19.6295 35.0255Z" fill="#FBBC04"/>
<path d="M31.4199 18.3119C34.4139 18.2656 37.3075 19.3922 39.4758 21.4602L45.4714 15.4646C41.6749 11.8996 36.6362 9.93968 31.4199 10.0014C23.4798 10.0014 16.2188 14.4769 12.6538 21.5759L19.6294 26.9851C21.2884 22.008 25.9413 18.3119 31.4199 18.3119Z" fill="#EA4335"/>
</g>
<defs>
<clipPath id="clip0_37_593">
<rect width="42" height="42" fill="white" transform="translate(10 10)"/>
</clipPath>
</defs>
</svg>
