<svg viewBox="0 0 240 234" height="234" width="240" style="width: 240px; height: 234px; position: absolute; top: 50%; left: 50%; z-index: 0; cursor: pointer; transform: translate(-50%, -50%) scale(0.622222);" xmlns="http://www.w3.org/2000/svg"><defs id="SvgjsDefs1396"></defs><g id="SvgjsG1397" featurekey="rootContainer" transform="matrix(1,0,0,1,0,0)" fill="#aa96da"><rect xmlns="http://www.w3.org/2000/svg" width="240" height="234" rx="10" ry="10"></rect></g><g id="SvgjsG1398" featurekey="symbolFeature-0" transform="matrix(0.8840662921566197,0,0,0.8840662921566197,76.52010525401678,15.594776672458842)" fill="#ffffff"><path xmlns="http://www.w3.org/2000/svg" d="M13.083,17.75c0.2,0.157,0.623-0.142,1.167,0.167c0.345,0.196,0.663,0.595,0.667,1c0.008,0.752-1.065,1.337-1.833,1.5  c-1.372,0.291-3.015-0.501-3.5-1.75c-0.24-0.618-0.162-1.259,0.25-2.417c0.879-2.471,2.259-4.44,4-6.5  c1.525-1.805,2.133-2.594,3.083-3.333c1.978-1.539,3.01-1.46,3.333-1.417c1.212,0.161,1.942,1.073,2.083,1.25  c1.102,1.376,0.817,3.212,0.25,4.25c-0.263,0.481-0.751,1.091-1,1c-0.281-0.103-0.178-1.064-0.167-1.167  c0.112-1.042,0.594-1.432,0.417-1.833C21.611,7.998,20.588,8,20.417,8C16.854,8.007,12.188,17.047,13.083,17.75z"></path><path xmlns="http://www.w3.org/2000/svg" d="M18.5,12.25c0.092-0.263,0.728-0.108,0.917-0.5c0.129-0.269-0.002-0.693-0.25-0.833c-0.273-0.154-0.693,0.032-1.75,0.833  c-2.604,1.975-3.117,3.166-3.25,3.5c-0.138,0.345-0.437,1.096-0.167,1.333c0.29,0.254,1.136-0.17,1.667-0.583  c0.861-0.671,0.726-1.187,1.333-1.417c0.621-0.235,1.335,0.087,2.25,0.5c0.422,0.191,1.167,0.583,1.167,0.583  c0.449,0.153,1.162,0.472,1.333,1.083c0.131,0.466-0.11,0.898-0.25,1.167c-0.007,0.013-0.504,1.619-1.5,4.833  c-0.447,1.443-0.529,1.864-0.417,2.417c0.196,0.966,0.833,1.578,1,1.75c2.758,2.845,4.071,16.42,6.083,16.417  c0.157,0,0.41-0.139,0.917-0.417c0.586-0.321,0.947-0.629,1.583-1.167c1.479-1.249,1.83-1.526,2-1.417  c0.225,0.144-0.144,0.776,0.167,1.083c0.348,0.345,1.051-0.214,1.5,0.083c0.442,0.292,0.274,1.17,0.167,2.417  c-0.21,2.434,0.155,2.235-0.083,3.167c-0.674,2.635-3.268,2.943-3.417,5.25c-0.027,0.416,0.024,0.918-0.25,1.583  c-0.219,0.53-0.512,0.844-1.25,1.667c-0.447,0.498-0.87,1.018-1.333,1.5c-2.576,2.682-9.275,12.886-11.833,19.167  c-0.108,0.265-0.881,2.186-0.5,2.417c0.267,0.162,0.91-0.622,1.083-0.5c0.358,0.253-1.86,3.987-2.167,4.5  c-3.381,5.663-4.166,5.985-4.333,7.917c-0.097,1.122,0.037,2.51-0.583,2.75c-0.475,0.183-0.858-0.511-2.083-0.667  c-0.338-0.043-1.446-0.184-2,0.5C4.041,93.424,3.826,93.904,4,94.25c0.258,0.514,1.217,0.427,2.667,0.417  c4.913-0.035,7.96,0.866,8.076,0.915c0,0,0.007,0.003,0.008,0.002c0.007-0.015-3.608-1.006-3.667-2.25  c-0.034-0.733,1.163-1.633,2.25-1.75c0.807-0.087,1.321,0.283,1.583,0c0.31-0.335-0.283-0.984-0.333-1.917  c-0.066-1.214,0.838-1.939,2-3.5c0.214-0.288,0.837-1.359,2.083-3.5c3.226-5.544,2.403-8.24,5.333-10.417  c0.449-0.333,1.419-1.039,2.833-1.333c0,0,1.124-0.234,5.083,0.333c-0.113-0.076-0.968-0.669-1-1.667  c-0.099-0.818,0.552-1.724,0.917-1.667c0.356,0.056,0.252,1.003,0.667,1.917c0.508,1.121,2.014,2.277,3.583,2.5  c0.406,0.058,0.79,0.045,1,0.333c0.315,0.433-0.084,1.101-0.25,1.75c-0.258,1.006,0.114,1.688,0.833,3.583  c0,0,0.926,2.439,1.75,5.333c0,0,0.083,0.292,1,3.833c-0.712,0.663-0.75,0.75-0.75,0.75c-0.357,0.812,1.854,2.062,1.667,2.833  c-0.288,1.186-4.784,0.15-4.917,0.75c-0.06,0.272,0.744,0.85,1.667,1c1.839,0.298,2.608-1.358,4.417-1  c0.692,0.137,1.412,0.544,1.667,0.25c0.19-0.219-0.056-0.626,0.167-0.833c0.273-0.254,0.844,0.167,1,0  c0.293-0.313-1.692-1.838-1.583-3.833c0.033-0.606,0.221-0.559,0.25-1.167c0.072-1.509-1.079-2.006-1.75-3.583  c-0.961-2.26,0.333-3.751-0.833-4.75c-0.405-0.347-1.215-0.727-1.833-0.417c-0.393,0.197-0.358,0.653-0.583,0.667  c-0.41,0.025-0.886-1.379-1-2.667c-0.048-0.544-0.131-1.477,0.167-1.583c0.566-0.201,1.806,2.843,2.417,2.667  c0.466-0.135,0.206-2.04,0.083-4.083c-0.353-5.876,0.593-10.138-0.25-10.333c-0.405-0.094-0.945,0.814-1.167,0.667  c-0.254-0.169,0.58-1.288,0.167-2c-0.435-0.75-1.895-0.43-2-0.917c-0.061-0.284,0.367-0.712,0.833-0.833  c0.906-0.237,1.704,0.746,2,0.5c0.218-0.182-0.194-0.736-0.167-1.5c0.032-0.88,0.628-1.511,1.083-2  c3.348-3.594,3.892-4.667,4.167-5.5c0.196-0.596,0.526-1.64,0-2.25c-0.483-0.56-1.475-0.507-2.083-0.333  c-1.443,0.411-1.985,1.854-2.167,1.75c-0.203-0.116,0.277-2.032,1.75-3.167c0.3-0.231,0.952-0.72,1.833-0.75  c0.531-0.018,0.7,0.147,1.083,0.167c1.108,0.058,2.012-1.194,2.75-2.167c0,0,0.893-1.176,3.083-3.75  c1.178-1.384,2.634-2.161,6.5-3.417C65.54,33.911,71.692,33.706,71.667,33c-0.012-0.321-1.305-0.876-2.357-1.04  c-0.191-0.03-0.561-0.076-0.559-0.127c0.003-0.121,2.101,0.253,2.833-0.667c0.372-0.467,0.403-1.388,0.083-2  c-0.156-0.298-0.321-0.375-0.354-0.667c-0.047-0.412,0.246-0.568,0.531-1.219c0.053-0.121,0.529-1.231,0.156-1.562  c-0.121-0.108-0.327-0.128-0.469-0.062c-0.249,0.114-0.202,0.438-0.406,0.875c-0.208,0.445-0.391,0.397-0.719,0.875  c-0.408,0.596-0.178,0.748-0.531,1.281c-0.342,0.515-0.568,0.389-1.156,1.125c-0.402,0.503-0.454,0.759-0.469,0.844  c-0.064,0.376,0.071,0.606-0.062,0.719c-0.156,0.132-0.408-0.125-0.875-0.188c-0.695-0.093-0.875,0.378-1.469,0.281  c-0.601-0.097-0.651-0.617-1.094-0.594c-0.492,0.026-0.57,0.674-1.25,1c-0.526,0.252-1.043,0.135-1.312,0.094  c-2.785-0.427-7.3,2.882-10.688,1.969c-0.206-0.056-1.428-0.402-1.719,0.031c-0.144,0.215,0.038,0.478-0.125,0.75  c-0.242,0.405-0.974,0.377-1.156,0.375c-0.725-0.009-3.556,1.129-9.219,3.406c-0.247,0.099-0.694,0.28-1.312,0.344  c-0.994,0.102-1.32-0.212-2.438-0.344c-1.291-0.152-1.397,0.205-2.969,0.062c-0.889-0.08-1.868-0.286-1.875-0.531  c-0.006-0.214,0.736-0.201,1.094-0.719c0.383-0.553,0.102-1.385-0.094-1.875c-1.39-3.485-4.463-4.801-5.781-7.906  c-0.202-0.477-0.737-1.875-1.781-2.094c-0.39-0.082-0.605,0.052-0.906-0.125c-0.448-0.264-0.581-0.918-0.594-2.344  c-0.013-1.457,0.101-3.503,0.312-3.5c0.215,0.003,0.158,2.123,0.5,2.156c0.486,0.047,1.347-4.161,1.062-4.25  c-0.169-0.053-0.7,1.358-0.938,1.281c-0.147-0.047,0.067-0.586-0.125-1.438c-0.147-0.649-0.392-0.871-0.25-1.156  c0.144-0.288,0.595-0.464,0.906-0.344c0.355,0.137,0.293,0.57,0.688,0.969c0.347,0.351,0.794,0.418,1.094,0.469  c2.002,0.337,3.942,1.101,5.969,1.219c2.203,0.128,4.281,0.669,8.438,1.75c5.291,1.377,5.76,2.229,10.188,3  c2.574,0.448,2.568,0.187,4.844,0.688c1.507,0.332,2.37,0.636,7.719,2.375c2.873,0.934,3.787,1.225,3.812,1.156  c0.01-0.027-0.097-0.167-3.188-1.469c-3.465-1.46-5.741-2.419-8.812-3.469c-5.397-1.844-9.991-2.854-11.531-3.188  c-2.684-0.582-5.254-1.929-8-1.969c-0.442-0.006-1.613,0.042-2.281-0.688c-0.21-0.229-0.315-0.474-0.656-0.656  c-0.472-0.251-0.915-0.126-1.438-0.062c-0.419,0.051-2.33,0.283-2.969-0.531c-0.325-0.414-0.023-0.718-0.469-1.438  c-0.252-0.406-0.7-0.877-1-0.781c-0.264,0.084-0.256,0.555-0.438,0.562c-0.201,0.008-0.197-0.573-0.656-0.906  c-0.151-0.11-0.175-0.064-0.938-0.281c-0.692-0.197-0.698-0.243-0.844-0.219c-0.505,0.083-0.513,0.641-1,0.75  c-0.489,0.109-0.723-0.399-1.188-0.281c-0.457,0.116-0.414,0.654-0.844,0.844C19.806,13.911,18.349,12.684,18.5,12.25z"></path><path xmlns="http://www.w3.org/2000/svg" d="M50.042,26.458c-0.306,0.463-0.298,0.856-0.375,1.542c-0.336,2.982-1.422,3.874-1.167,5.333  c0.023,0.129,0.086,0.438-0.083,0.667c-0.269,0.363-0.927,0.258-1.333,0.25c-0.951-0.018-1.16,0.486-2.792,1.292  c-2.486,1.227-4.346,1.214-4.917,2.208c-0.058,0.101-0.222,0.419-0.5,0.458c-0.203,0.029-0.349-0.105-0.792-0.5  c-1.167-1.042-1.129-0.986-1.25-1.125c-0.372-0.428-0.406-0.581-0.625-0.625c-0.434-0.087-0.75,0.421-1,0.292  c-0.152-0.078-0.161-0.329-0.167-0.875c-0.01-0.923-0.015-1.384,0-1.5c0.122-0.962,0.668-1.221,2.083-3.417  c0.627-0.973,0.941-1.46,1.125-1.958c0.231-0.626,0.23-0.931,0.583-1.333c0.332-0.378,0.674-0.498,0.75-0.917  c0.065-0.358-0.042-0.667-0.042-0.667c-0.083-0.24-0.205-0.334-0.167-0.458c0.061-0.199,0.459-0.24,0.542-0.25  c1.628-0.188,8.44-2.812,9.292-1.167c0.217,0.419-0.099,0.832,0.25,1.208C50,25.5,51.26,25.047,51.333,25.292  C51.393,25.49,50.541,25.702,50.042,26.458z M39.625,29.625c-0.403,0.827-0.623,1.278-0.917,1.958  c-0.608,1.406-0.542,1.501-0.875,1.958c-0.565,0.777-1.06,0.925-1.042,1.417C36.8,35.178,37.033,35.452,37.5,36  c0.686,0.806,0.94,0.866,1.083,0.875c0.309,0.02,0.551-0.164,0.667-0.25c0.227-0.168,2.173-1.599,3.833-2.167  c0.311-0.106,1.069-0.339,1.958-0.792c0.181-0.092,0.373-0.197,0.583-0.375c0.518-0.44,0.724-0.971,0.833-1.25  c0.873-2.235,1.241-2.996,1.583-4.792c0.177-0.929,0.199-1.36-0.042-1.542c-0.276-0.209-0.702,0.058-1.5,0.333  c-0.725,0.25-0.533,0.085-3.042,0.583c-1.477,0.293-2.222,0.445-2.5,0.667C40.644,27.543,40.3,28.24,39.625,29.625z"></path><path xmlns="http://www.w3.org/2000/svg" d="M80.708,26.375c-0.144-0.154-0.411,0.11-1.167,0.042c-0.649-0.059-0.999-0.302-1.167-0.125  c-0.156,0.165-0.014,0.547,0,0.583c0.121,0.316,0.333,0.325,0.375,0.542c0.061,0.319-0.307,0.771-0.667,0.792  c-0.338,0.019-0.432-0.358-0.708-0.417c-0.661-0.141-1.253,1.776-2.75,3.833c-2.038,2.801-2.667,3.458-2.667,3.458  c-0.278,0.291-0.941,0.965-0.75,1.417c0.118,0.279,0.512,0.36,0.583,0.375c0.413,0.086,0.818-0.087,1.333-0.458  c0.869-0.626,1.378-1.333,1.5-1.5c1.052-1.445,1.061-0.959,2.667-2.958c0.658-0.819,1.078-1.435,1.917-2.667  C80.629,27.207,80.895,26.574,80.708,26.375z"></path><path xmlns="http://www.w3.org/2000/svg" d="M71.292,41.792c0.251-0.282,0.07-0.133,1.292-2.208c0.181-0.308,1.143-1.938,1.75-2.875c0.778-1.202,1.494-2.07,3.208-4  c3.319-3.737,4.978-5.605,6.25-6.667c2.71-2.261,3.455-2.145,4.5-3.375c0.305-0.359,0.911-1.157,1.792-1.208  c0.481-0.028,0.924,0.174,1.083-0.042c0.189-0.254-0.295-0.718-0.083-1.083c0.172-0.296,0.665-0.292,0.75-0.292  c0.662,0.005,1.087,0.584,1.208,0.75c0.116,0.158,0.517,0.704,0.333,1.125c-0.103,0.236-0.318,0.268-0.333,0.458  c-0.025,0.298,0.475,0.557,0.583,0.625c1.325,0.83,0.833,4.569-0.208,5.292c-0.372,0.258-0.667,0.375-0.667,0.375  c-0.478,0.19-0.652,0.105-0.833,0.292c-0.176,0.181-0.126,0.377-0.208,0.958c0,0-0.005,0.037-0.208,0.958  c-0.696,3.159-6.792,8.083-6.792,8.083c-3.339,2.671-5.695,4.769-5.958,4.5c-0.148-0.151,0.447-0.956,0.542-1.083  c0.808-1.093,1.678-1.374,2.833-2.25c0.382-0.29,0.824-0.735,1.708-1.625c1.732-1.743,2.906-2.925,4.208-4.667  c1.785-2.387,1.002-2.069,3.083-5.042c0,0,1.009-1.441,1.625-3.583c0.161-0.559,0.316-1.255-0.042-1.625  c-0.274-0.284-0.739-0.262-1-0.25c-0.867,0.04-1.504,0.503-1.667,0.625c-2.016,1.505-6.409,6.113-8.75,8.292  c-1.291,1.202-3.944,3.514-4.167,5.417c-0.017,0.147-0.067,0.692-0.25,1.417c-0.241,0.953-0.52,1.449-0.917,2.333  c-1.192,2.659-1.249,3.925-2.125,4.125c-0.253,0.058-0.673,0.049-0.833,0.333c-0.133,0.234-0.037,0.576,0,0.708  c0.111,0.397,0.321,0.538,0.25,0.667c-0.067,0.122-0.268,0.02-0.583,0.125c-0.366,0.122-0.353,0.345-0.75,0.542  c-0.065,0.032-0.579,0.286-0.833,0.083c-0.059-0.047-0.142-0.149-0.125-0.75c0.019-0.701,0.138-0.8,0.125-1.292  c-0.015-0.535-0.158-0.534-0.125-0.958c0.045-0.579,0.315-0.627,0.292-1.042c-0.031-0.553-0.522-0.673-0.542-1.167  C70.692,42.391,71.002,42.117,71.292,41.792z"></path><path xmlns="http://www.w3.org/2000/svg" d="M84.458,31.75c-0.514,0.808-0.755,0.766-2.083,2.292c-1.131,1.298-0.83,1.183-1.583,1.958  c-0.172,0.177-0.634,0.642-1.042,1.375c-0.225,0.404-0.44,0.8-0.292,1c0.189,0.255,0.884,0.078,1.333-0.125  c0.735-0.332,1.045-0.838,1.583-1.5c0.647-0.796,1.334-1.42,2.708-2.667c0.086-0.078,0.572-0.58,1.542-1.583  c0.495-0.512,0.825-0.863,0.75-1.25c-0.059-0.302-0.341-0.515-0.542-0.667c-0.214-0.161-0.472-0.357-0.792-0.333  c-0.154,0.011-0.362,0.076-0.875,0.625C84.85,31.214,84.691,31.384,84.458,31.75z"></path></g><g id="SvgjsG1399" featurekey="nameFeature-0" transform="matrix(1.772217004640658,0,0,1.772217004640658,19.007557733749383,87.32032762866731)" fill="#ffffff"><path d="M14 27.32 c0 -1.64 -0.36 -4.6 -2.6 -4.6 c-1.56 0 -2.24 1.48 -2.24 2.88 c0 1.52 0.4 4.84 2.44 4.84 c1.8 0 2.4 -1.56 2.4 -3.12 z M6.48 42 c0 2.12 3.12 2.68 4.68 2.68 c1.32 0 4.32 -0.2 4.32 -2.04 c0 -0.84 -0.8 -1.2 -1.56 -1.2 c-0.6 0 -2.16 0.24 -3.44 0.24 c-0.92 0 -3.08 -0.32 -3.52 -0.32 c-0.36 0 -0.48 0.36 -0.48 0.64 z M24 39.68 c0 3.6 -3.44 8.44 -13.24 8.44 c-7.4 0 -10.2 -2.8 -10.2 -5.36 c0 -2.32 2.2 -2.36 2.2 -2.96 c0 -0.52 -2.16 -1.64 -2.16 -3.4 c0 -2.84 3.24 -3.68 3.24 -4.24 c0 -0.48 -2.72 -2.32 -2.72 -5.28 c0 -4.84 6.04 -7.08 10.08 -7.08 c2.04 0 4.8 0.76 6.2 0.76 c3.04 0 4.56 -2.12 5.16 -2.12 c0.92 0 1.32 1.2 1.32 1.96 c0 2.24 -2.24 3.84 -2.24 4.28 c0 0.4 0.12 0.84 0.12 1.24 c0 5.4 -6.28 7.24 -10.68 7.24 c-0.68 0 -1.36 -0.12 -2.08 -0.12 c-0.68 0 -1.08 0.44 -1.08 1.08 c0 1.24 1.76 1.48 2.68 1.48 c1.24 0 5.88 -0.68 7.48 -0.68 c4.16 0 5.92 2.36 5.92 4.76 z M35.031000000000006 40.56 c-5.92 0 -10.96 -3.48 -10.96 -9.8 c0 -7.16 6.28 -11.2 12.88 -11.2 c7 0 11 5.48 11 10.44 c0 6.56 -7.04 10.56 -12.92 10.56 z M38.751000000000005 33.04 c0 -1.8 -0.8 -8.76 -3.52 -8.76 c-1.32 0 -2.04 1.24 -1.96 2.4 c0.16 2.52 0.88 8.68 3.64 8.84 c1.52 0.08 1.84 -1.2 1.84 -2.48 z M50.542 32.519999999999996 l0 -3.68 c0 -2.56 -0.52 -3.28 -0.92 -3.64 c-0.52 -0.44 -1.08 -0.4 -1.08 -1.44 c0 -2.96 9.92 -4.08 10 -4.08 c1 0 1.08 0.88 1.08 1.72 c0 0.48 -0.16 1.84 0.68 1.84 c0.4 0 1.04 -0.88 2.16 -1.8 c1.12 -0.88 2.72 -1.76 5.08 -1.76 c4.76 0 4.8 3.56 5.64 3.56 c0.32 0 1.04 -0.88 2.2 -1.8 c1.2 -0.88 2.8 -1.76 4.84 -1.76 c3.8 0 6.16 2.08 6.16 6 l0 8.44 c0 2.32 1.48 2.52 1.48 3.68 c0 2.52 -4.56 2.64 -6.12 2.64 c-1.32 0 -5.96 -0.28 -5.96 -2.36 c0 -1.48 1.4 -1.44 1.4 -3.76 l0 -3.6 c0 -1.68 0.2 -5.04 -2.08 -5.04 c-2.24 0 -2.04 2.72 -2.04 4.2 l0 2.48 c0 4.92 1.44 4.08 1.44 5.56 c0 2.48 -4.8 2.52 -6.24 2.52 c-6.04 0 -6.36 -1.12 -6.32 -2.24 c0.04 -2.12 2.04 -0.44 1.92 -5.2 l0 -2.28 c0 -1.44 0.2 -5.04 -2.08 -5.04 c-2.24 0 -2.04 2.72 -2.04 4.2 l0 3.24 c0 3.68 1.08 3.44 1.08 4.88 c0 1.04 -0.92 2.44 -6.4 2.44 c-1.56 0 -6.28 0.04 -6.28 -2.08 c0 -1.8 2.4 -0.84 2.4 -5.84 z M107.533 30.119999999999997 l-2.36 6.52 c-1.96 5.32 -4.52 10.52 -11.04 10.52 c-2.88 0 -6.28 -1.48 -6.28 -4.8 c0 -2 1.52 -3.68 3.56 -3.68 c3.72 0 2.68 4.24 4.32 4.24 c1.08 0 1.56 -1.04 1.56 -1.96 c0 -1.12 -0.8 -2.64 -1.28 -3.64 l-5.6 -11.72 c-0.76 -1.6 -3.04 -1.12 -3.04 -2.96 c0 -1.2 0.72 -2.96 9.16 -2.96 c1.52 0 5.12 0.16 5.12 2.44 c0 1.08 -0.92 1.4 -0.92 2.36 c0 1.52 1.76 4.32 2.44 4.32 c1.2 0 2.04 -2.76 2.04 -3.72 c0 -1.8 -1.28 -1.68 -1.28 -3.04 c0 -2.12 3.76 -2.36 5.2 -2.36 c1.32 0 4.28 0.2 4.28 2.04 c0 2.36 -2.4 1.32 -3.8 3.68 c-0.88 1.4 -1.52 3.16 -2.08 4.72 z"></path></g><g id="SvgjsG1400" featurekey="sloganFeature-0" transform="matrix(1.04385256713372,0,0,1.04385256713372,39.10291331723949,187.78031905627037)" fill="#ffffff"><path d="M7.9297 20.19531 c-4.0723 0 -7.0703 -2.8125 -7.0703 -7.2168 c0 -4.4629 3.0664 -7.2852 7.2168 -7.2852 c2.7246 0 4.9805 1.2012 6.2109 3.3203 l-2.5684 1.3672 c-0.74219 -1.4453 -2.0703 -2.1387 -3.6426 -2.1387 c-2.4414 0 -4.2773 1.6797 -4.2773 4.668 c0 2.8809 1.7188 4.7363 4.3848 4.7363 c1.8066 0 3.4668 -0.89844 3.8672 -2.959 l-3.8574 0 l0 -2.3535 l6.6309 0 l0 7.666 l-2.3047 0 l0 -1.9531 c-0.9082 1.3379 -2.4316 2.1484 -4.5898 2.1484 z M22.61958515625 9.961 l2.8809 0 l-6.1914 14.766 l-2.8516 0 l2.2949 -5.1367 l-4.1309 -9.6289 l3.0664 0 l2.3926 6.6016 z M37.4369140625 9.766 c2.1484 0 3.5352 1.0938 3.5352 3.1543 l0 7.0801 l-2.8125 0 l0 -6.2793 c0 -1.1816 -0.74219 -1.6992 -1.582 -1.6992 c-1.0059 0 -1.8945 0.57617 -1.8945 2.3145 l0 5.6641 l-2.8418 0 l0 -6.25 c0 -1.2012 -0.72266 -1.7285 -1.6113 -1.7285 c-0.97656 0 -1.8848 0.57617 -1.8848 2.4609 l0 5.5176 l-2.8027 0 l0 -10.039 l2.8027 0 l0 1.1816 c0.66406 -0.88867 1.6797 -1.377 2.9102 -1.377 c1.4551 0 2.5488 0.52734 3.0762 1.5039 c0.70313 -1.0059 1.7773 -1.5039 3.1055 -1.5039 z M47.451146875 8.457 c-0.88867 0 -1.6309 -0.72266 -1.6309 -1.6211 c0 -0.88867 0.74219 -1.6113 1.6309 -1.6113 c0.86914 0 1.6113 0.72266 1.6113 1.6113 c0 0.89844 -0.74219 1.6211 -1.6113 1.6211 z M46.015646875 20 l0 -10.039 l2.832 0 l0 10.039 l-2.832 0 z M56.24266328125 9.766 c2.4121 0 3.7402 1.25 3.7402 3.4766 l0 6.7578 l-2.8223 0 l0 -6.1523 c0 -1.3379 -0.83008 -1.8262 -1.7969 -1.8262 c-1.1621 0 -2.2168 0.58594 -2.2363 2.4414 l0 5.5371 l-2.8125 0 l0 -10.039 l2.8125 0 l0 1.1133 c0.70313 -0.83008 1.7871 -1.3086 3.1152 -1.3086 z M71.58931171875 9.961 l2.8809 0 l-6.1914 14.766 l-2.8516 0 l2.2949 -5.1367 l-4.1309 -9.6289 l3.0664 0 l2.3926 6.6016 z M79.189440625 20.19531 c-3.1934 0 -5.498 -1.9434 -5.498 -5.2246 c0 -3.2617 2.2852 -5.2051 5.498 -5.2051 c3.2324 0 5.5078 1.9434 5.5078 5.2051 c0 3.2813 -2.2852 5.2246 -5.5078 5.2246 z M79.160140625 17.959 c1.6309 0 2.7441 -1.1914 2.7441 -2.9883 s-1.1133 -2.9883 -2.7441 -2.9883 c-1.5723 0 -2.6758 1.1914 -2.6758 2.9883 s1.1035 2.9883 2.6758 2.9883 z M91.99466015625 9.961 l2.8125 0 l0 10.039 l-2.666 0 l-0.068359 -1.2109 c-0.70313 0.88867 -1.8164 1.4063 -3.1934 1.4063 c-2.4121 0 -3.7402 -1.2598 -3.7402 -3.4766 l0 -6.7578 l2.8223 0 l0 6.1523 c0 1.3281 0.83008 1.8164 1.8066 1.8164 c1.1621 0 2.2168 -0.58594 2.2266 -2.4316 l0 -5.5371 z M98.9697359375 11.5527 c0.50781 -0.88867 1.8262 -1.709 3.2813 -1.709 l0 2.5098 c-2.1289 0 -3.1445 0.625 -3.1445 2.7539 l0 4.8926 l-2.832 0 l0 -10.039 l2.6953 0 l0 1.5918 z M112.285159375 9.766 c2.2461 0 3.5938 1.25 3.5938 3.7598 l0 6.4746 l-2.8223 0 l0 -6.0156 c0 -1.4746 -0.82031 -1.9629 -1.8262 -1.9629 c-1.0449 0 -2.1875 0.51758 -2.207 2.4414 l0 5.5371 l-2.8125 0 l0 -15 l2.8125 0 l0 6.1621 c0.71289 -0.86914 1.8359 -1.3965 3.2617 -1.3965 z M121.81883515625 20.19531 c-3.1934 0 -5.498 -1.9434 -5.498 -5.2246 c0 -3.2617 2.2852 -5.2051 5.498 -5.2051 c3.2324 0 5.5078 1.9434 5.5078 5.2051 c0 3.2813 -2.2852 5.2246 -5.5078 5.2246 z M121.78953515625 17.959 c1.6309 0 2.7441 -1.1914 2.7441 -2.9883 s-1.1133 -2.9883 -2.7441 -2.9883 c-1.5723 0 -2.6758 1.1914 -2.6758 2.9883 s1.1035 2.9883 2.6758 2.9883 z M139.8685546875 9.766 c2.1484 0 3.5352 1.0938 3.5352 3.1543 l0 7.0801 l-2.8125 0 l0 -6.2793 c0 -1.1816 -0.74219 -1.6992 -1.582 -1.6992 c-1.0059 0 -1.8945 0.57617 -1.8945 2.3145 l0 5.6641 l-2.8418 0 l0 -6.25 c0 -1.2012 -0.72266 -1.7285 -1.6113 -1.7285 c-0.97656 0 -1.8848 0.57617 -1.8848 2.4609 l0 5.5176 l-2.8027 0 l0 -10.039 l2.8027 0 l0 1.1816 c0.66406 -0.88867 1.6797 -1.377 2.9102 -1.377 c1.4551 0 2.5488 0.52734 3.0762 1.5039 c0.70313 -1.0059 1.7773 -1.5039 3.1055 -1.5039 z M154.13774609375 14.834 l-0.029297 0.67383 l-7.4414 0 c0.11719 1.6699 1.2305 2.4707 2.5684 2.4707 c1.0059 0 1.7871 -0.46875 2.168 -1.3574 l2.5781 0.38086 c-0.66406 2.0313 -2.4707 3.1934 -4.7266 3.1934 c-3.2422 0 -5.3613 -1.9141 -5.3613 -5.2148 s2.1777 -5.2344 5.2734 -5.2344 c2.8418 0 4.9609 1.5723 4.9707 5.0879 z M149.18704609375 11.7383 c-1.2793 0 -2.168 0.5957 -2.4414 1.9336 l4.6094 0 c-0.14648 -1.2793 -1.0156 -1.9336 -2.168 -1.9336 z"></path></g></svg>