<svg width="59" height="59" viewBox="0 0 59 59" fill="none" xmlns="http://www.w3.org/2000/svg">
<rect x="1" y="1" width="57" height="57" fill="#EEEEEE"/>
<path d="M35.7391 13L36.6051 12.5L35.7391 11L34.8731 12.5L35.7391 13ZM48.9357 35.8573V36.8573H50.6678L49.8018 35.3573L48.9357 35.8573ZM22.5424 35.8573L21.6764 35.3573L20.8104 36.8573H22.5424V35.8573ZM34.8731 13.5L48.0697 36.3573L49.8018 35.3573L36.6051 12.5L34.8731 13.5ZM29.2231 26.2861L36.6051 13.5L34.8731 12.5L27.491 25.2861L29.2231 26.2861ZM22.4287 25.1302C24.411 25.1302 26.2612 25.6823 27.8376 26.6406L28.8765 24.9316C26.9959 23.7884 24.7876 23.1302 22.4287 23.1302V25.1302ZM12 35.5588C12 29.7993 16.6691 25.1302 22.4287 25.1302V23.1302C15.5645 23.1302 10 28.6947 10 35.5588H12ZM22.4287 45.9875C16.6691 45.9875 12 41.3184 12 35.5588H10C10 42.423 15.5645 47.9875 22.4287 47.9875V45.9875ZM32.8538 35.8317C32.7094 41.4649 28.097 45.9875 22.4287 45.9875V47.9875C29.1844 47.9875 34.681 42.5976 34.8532 35.8829L32.8538 35.8317ZM48.9357 34.8573H33.8535V36.8573H48.9357V34.8573ZM33.8535 34.8573H22.5424V36.8573H33.8535V34.8573ZM23.4085 36.3573L29.2231 26.2861L27.491 25.2861L21.6764 35.3573L23.4085 36.3573ZM27.8376 26.6406C30.8493 28.4715 32.8573 31.7811 32.8573 35.5588H34.8573C34.8573 31.0541 32.4601 27.1102 28.8765 24.9316L27.8376 26.6406ZM32.8573 35.5588C32.8573 35.6501 32.8561 35.741 32.8538 35.8317L34.8532 35.8829C34.8559 35.7752 34.8573 35.6672 34.8573 35.5588H32.8573Z" fill="#AAAAAA"/>
<rect x="1" y="1" width="57" height="57" stroke="#484848" stroke-width="2"/>
</svg>
